HIERARCHY
ROOT Pelvis
{
	OFFSET 0.000000 0.000000 0.000000
	CHANNELS 6 Xposition Yposition Zposition Xrotation Yrotation Zrotation
	JOINT LeftUpLeg_virtual
	{
		OFFSET 0.000000 0.000000 0.000000
		CHANNELS 3 Xrotation Yrotation Zrotation
		JOINT LeftUpLeg
		{
			OFFSET 18.735201 -5.666702 -4.541200
			CHANNELS 3 Xrotation Yrotation Zrotation
			JOINT LeftLeg
			{
				OFFSET -0.021200 -31.938179 0.493100
				CHANNELS 3 Xrotation Yrotation Zrotation
				JOINT LeftFoot
				{
					OFFSET 0.021200 -31.938179 -4.336299
					CHANNELS 3 Xrotation Yrotation Zrotation
					JOINT LeftToeBase
					{
						OFFSET 0.943001 -26.722000 15.023500
						CHANNELS 3 Xrotation Yrotation Zrotation
						End Site
						{
							OFFSET 0 0 0
						}
					}
				}
			}
		}
	}
	JOINT RightUpLeg_virtual
	{
		OFFSET 0.000000 0.000000 0.000000
		CHANNELS 3 Xrotation Yrotation Zrotation
		JOINT RightUpLeg
		{
			OFFSET -18.735201 -5.666702 -4.541200
			CHANNELS 3 Xrotation Yrotation Zrotation
			JOINT RightLeg
			{
				OFFSET 0.018946 -31.938133 0.493100
				CHANNELS 3 Xrotation Yrotation Zrotation
				JOINT RightFoot
				{
					OFFSET -0.018946 -31.938126 -4.336299
					CHANNELS 3 Xrotation Yrotation Zrotation
					JOINT RightToeBase
					{
						OFFSET -0.943001 -26.722004 15.023500
						CHANNELS 3 Xrotation Yrotation Zrotation
						End Site
						{
							OFFSET 0 0 0
						}
					}
				}
			}
		}
	}
	JOINT Hips_virtual
	{
		OFFSET 0.000000 0.000000 0.000000
		CHANNELS 3 Xrotation Yrotation Zrotation
		JOINT Hips
		{
			OFFSET -0.000000 -0.000000 -0.000000
			CHANNELS 3 Xrotation Yrotation Zrotation
			JOINT Spine
			{
				OFFSET 0.000000 10.199997 -0.299500
				CHANNELS 3 Xrotation Yrotation Zrotation
				JOINT Spine1
				{
					OFFSET 0.000000 11.900002 -1.516600
					CHANNELS 3 Xrotation Yrotation Zrotation
					JOINT Spine2
					{
						OFFSET 0.000000 13.600006 -2.842500
						CHANNELS 3 Xrotation Yrotation Zrotation
						JOINT Neck_virtual
						{
							OFFSET 0.000000 0.000000 0.000000
							CHANNELS 3 Xrotation Yrotation Zrotation
							JOINT Neck
							{
								OFFSET 0.000000 9.624100 -2.890100
								CHANNELS 3 Xrotation Yrotation Zrotation
								JOINT Head
								{
									OFFSET 0.000000 14.068802 -1.351900
									CHANNELS 3 Xrotation Yrotation Zrotation
									End Site
									{
										OFFSET 0 0 0
									}
								}
							}
						}
						JOINT LeftShoulder_virtual
						{
							OFFSET 0.000000 0.000000 0.000000
							CHANNELS 3 Xrotation Yrotation Zrotation
							JOINT LeftShoulder
							{
								OFFSET 15.263000 10.923401 -0.547700
								CHANNELS 3 Xrotation Yrotation Zrotation
								JOINT LeftArm
								{
									OFFSET 25.438599 -2.830597 -13.032500
									CHANNELS 3 Xrotation Yrotation Zrotation
									JOINT LeftForeArm
									{
										OFFSET 29.960503 0.000000 0.000000
										CHANNELS 3 Xrotation Yrotation Zrotation
										JOINT LeftHand
										{
											OFFSET 27.849251 0.000000 0.000000
											CHANNELS 3 Xrotation Yrotation Zrotation
											End Site
											{
												OFFSET 0 0 0
											}
										}
									}
								}
							}
						}
						JOINT RightShoulder_virtual
						{
							OFFSET 0.000000 0.000000 0.000000
							CHANNELS 3 Xrotation Yrotation Zrotation
							JOINT RightShoulder
							{
								OFFSET -15.263000 10.923401 -0.547700
								CHANNELS 3 Xrotation Yrotation Zrotation
								JOINT RightArm
								{
									OFFSET -25.438599 -2.830597 -13.032500
									CHANNELS 3 Xrotation Yrotation Zrotation
									JOINT RightForeArm
									{
										OFFSET -29.960503 0.000000 0.000000
										CHANNELS 3 Xrotation Yrotation Zrotation
										JOINT RightHand
										{
											OFFSET -27.849251 0.000000 0.000000
											CHANNELS 3 Xrotation Yrotation Zrotation
											End Site
											{
												OFFSET 0 0 0
											}
										}
									}
								}
							}
						}
					}
				}
			}
		}
	}
}
MOTION
Frames: 6
Frame Time: 0.03333333
-3.526504 78.410408 3.057371 0.000000 0.000000 0.000000 11.660451 -49.374413 11.268411 -69.006829 20.606783 47.788098 51.256383 -22.124369 3.397159 2.960991 1.488315 -15.125358 0.000000 0.000000 0.000000 11.660451 -49.374413 11.268411 -33.116025 3.850962 -30.939811 58.819089 4.953747 -6.674910 -30.773182 -6.442911 30.151877 0.000000 0.000000 0.000000 11.660451 -49.374413 11.268411 0.000001 -0.000004 0.000000 10.972540 2.720461 -2.032865 6.100700 5.566541 -4.284684 0.000000 0.000000 0.000000 -5.786916 6.328140 -3.046182 0.458698 1.873392 -0.022567 0.000000 0.000000 0.000000 -5.786916 6.328140 -3.046182 -1.875343 -16.181772 -2.870480 -10.644672 2.164772 -45.510595 -22.862390 -25.786283 -15.871760 0.000000 0.000000 0.000000 -5.786916 6.328140 -3.046182 -5.074617 24.343752 1.482674 6.642361 -34.733742 57.610433 -21.032027 44.833813 19.961713 0.000000 0.000000 0.000000 
-3.558670 78.429230 3.107050 0.000000 0.000000 0.000000 11.184673 -51.001607 10.912970 -67.437497 20.224414 48.582756 51.909294 -22.329785 3.457531 1.520549 1.967684 -16.007482 0.000000 0.000000 0.000000 11.184673 -51.001607 10.912970 -33.601727 4.374805 -30.754621 58.821575 5.784539 -6.664847 -30.330879 -5.652759 29.869664 0.000000 0.000000 0.000000 11.184673 -51.001607 10.912970 0.000000 -0.000002 0.000000 10.990959 2.738148 -2.027900 6.138154 5.594447 -4.285142 0.000000 0.000000 0.000000 -5.748710 6.468379 -2.981396 0.493173 1.868019 -0.017820 0.000000 0.000000 0.000000 -5.748710 6.468379 -2.981396 -1.831975 -15.691458 -2.734873 -10.284159 1.988963 -45.432834 -22.867636 -26.152774 -16.049787 0.000000 0.000000 0.000000 -5.748710 6.468379 -2.981396 -5.284791 25.012604 1.987640 5.891140 -33.544176 56.610391 -21.351965 45.089849 20.683981 0.000000 0.000000 0.000000 
-3.686884 78.543221 3.072243 0.000000 0.000000 0.000000 10.644291 -52.548313 10.553820 -65.818312 19.574103 48.412753 53.804047 -21.532561 3.701283 -0.464152 3.035865 -15.118931 0.000000 0.000000 0.000000 10.644291 -52.548313 10.553820 -33.754044 5.099538 -30.236903 58.734839 6.204278 -6.757334 -29.944553 -5.132468 29.676052 0.000000 0.000000 0.000000 10.644291 -52.548313 10.553820 0.000000 -0.000001 0.000000 11.043300 2.746623 -2.022758 6.244011 5.671780 -4.285783 0.000000 0.000000 0.000000 -5.640074 6.608157 -2.917740 0.524694 1.852678 -0.008452 0.000000 0.000000 0.000000 -5.640074 6.608157 -2.917740 -1.772854 -15.071260 -2.573300 -9.648136 1.878000 -45.209275 -22.751850 -26.556762 -16.251522 0.000000 0.000000 0.000000 -5.640074 6.608157 -2.917740 -5.414784 24.900587 2.343738 4.830028 -31.450453 55.681673 -21.606730 44.967408 21.111012 0.000000 0.000000 0.000000 
-3.838923 78.633026 3.068033 0.000000 0.000000 0.000000 10.047326 -54.044531 10.161389 -64.334986 18.333537 47.674522 56.715715 -19.992420 4.074099 -2.503923 4.423309 -14.007224 0.000000 0.000000 0.000000 10.047326 -54.044531 10.161389 -33.633088 6.085744 -29.559119 58.657589 6.350441 -6.927606 -29.659970 -4.896613 29.667347 0.000000 0.000000 0.000000 10.047326 -54.044531 10.161389 0.000001 0.000002 -0.000000 11.124045 2.757999 -1.996951 6.408564 5.788709 -4.285503 0.000000 0.000000 0.000000 -5.470567 6.747024 -2.854224 0.553969 1.828503 0.004806 0.000000 0.000000 0.000000 -5.470567 6.747024 -2.854224 -1.680929 -14.154111 -2.352874 -8.774231 1.650377 -44.932116 -22.530361 -26.999714 -16.467748 0.000000 0.000000 0.000000 -5.470567 6.747024 -2.854224 -5.461410 25.266485 2.495339 3.915307 -29.781537 55.120006 -21.873966 44.541962 21.371851 0.000000 0.000000 0.000000 
-3.964672 78.634079 3.139578 0.000000 0.000000 0.000000 9.400862 -55.520770 9.715930 -62.761427 16.716791 47.412544 59.822608 -18.967509 4.407813 -4.848554 5.957950 -15.444299 0.000000 0.000000 0.000000 9.400862 -55.520770 9.715930 -33.336367 7.358515 -28.816008 58.656790 6.318488 -7.156066 -29.475299 -4.916654 29.876525 0.000000 0.000000 0.000000 9.400862 -55.520770 9.715930 0.000000 0.000002 0.000000 11.227941 2.780695 -1.940162 6.622069 5.935552 -4.283189 0.000000 0.000000 0.000000 -5.249792 6.884307 -2.789886 0.581612 1.796825 0.021319 0.000000 0.000000 0.000000 -5.249792 6.884307 -2.789886 -1.628001 -13.599099 -2.198494 -7.656114 1.924348 -44.436220 -22.218803 -27.483346 -16.689612 0.000000 0.000000 0.000000 -5.249792 6.884307 -2.789886 -5.521603 25.685613 2.682265 3.144990 -28.050429 54.521206 -22.183266 44.067937 21.624432 0.000000 0.000000 0.000000 
-4.094612 78.610550 3.229294 0.000000 0.000000 0.000000 8.707438 -56.998455 9.221292 -61.347154 15.279113 47.608823 62.985546 -16.189789 4.789838 -7.738414 5.481112 -17.808257 0.000000 0.000000 0.000000 8.707438 -56.998455 9.221292 -32.920945 8.821738 -27.982127 58.664877 6.131209 -7.425070 -29.338705 -5.092980 30.207721 0.000000 0.000000 0.000000 8.707438 -56.998455 9.221292 0.000001 0.000002 -0.000000 11.350865 2.808822 -1.866931 6.874754 6.102621 -4.277772 0.000000 0.000000 0.000000 -4.987293 7.019350 -2.723728 0.607852 1.758745 0.040427 0.000000 0.000000 0.000000 -4.987293 7.019350 -2.723728 -1.491705 -12.199090 -1.884199 -6.386910 1.506308 -44.121676 -21.832754 -28.008762 -16.908277 0.000000 0.000000 0.000000 -4.987293 7.019350 -2.723728 -5.598475 26.200723 2.915624 2.595577 -26.209067 53.809333 -22.511364 43.587518 21.915198 0.000000 0.000000 0.000000 
